<?xml version="1.0" encoding="utf-8"?>
<!-- Generator: Adobe Illustrator 21.0.0, SVG Export Plug-In . SVG Version: 6.00 Build 0)  -->
<svg version="1.2" baseProfile="tiny" id="Artwork" xmlns="http://www.w3.org/2000/svg" xmlns:xlink="http://www.w3.org/1999/xlink"
	 x="0px" y="0px" viewBox="0 0 128 128" xml:space="preserve">
<path fill="#F36B7F" d="M64,0C28.654,0,0,28.654,0,64c0,35.346,28.654,64,64,64c35.346,0,64-28.654,64-64C128,28.654,99.346,0,64,0z
	"/>
<path fill="#FFFFFF" d="M95.573,93.013c0,1.414-1.146,2.56-2.56,2.56H64c-1.414,0-2.56-1.146-2.56-2.56v-23.04h5.12v18.773
	c0,0.939,0.768,1.707,1.707,1.707h20.48c0.939,0,1.707-0.768,1.707-1.707v-20.48c0-0.939-0.768-1.707-1.707-1.707h-53.76
	c-1.414,0-2.56-1.146-2.56-2.56V34.987c0-1.414,1.146-2.56,2.56-2.56H64c1.414,0,2.56,1.146,2.56,2.56v23.04h-5.12V39.253
	c0-0.939-0.768-1.707-1.707-1.707h-20.48c-0.939,0-1.707,0.768-1.707,1.707v20.48c0,0.939,0.768,1.707,1.707,1.707h53.76
	c1.414,0,2.56,1.146,2.56,2.56V93.013z"/>
</svg>
