<?xml version="1.0" encoding="UTF-8" standalone="yes"?>
<!DOCTYPE svg PUBLIC "-//W3C//DTD SVG 1.1//EN" "http://www.w3.org/Graphics/SVG/1.1/DTD/svg11.dtd">

<svg width="500" height="500" viewBox="0 0 500 500" xmlns="http://www.w3.org/2000/svg" xmlns:xlink="http://www.w3.org/1999/xlink" version="1.1" baseProfile="full">
    <g transform="scale(1,-1) translate(0,-500)">
        <path d="M 492.000000 247.000000 C 492.000000 382.309764 382.309764 492.000000 247.000000 492.000000 C 111.690236 492.000000 2.000000 382.309764 2.000000 247.000000 C 2.000000 111.690236 111.690236 2.000000 247.000000 2.000000 C 382.309764 2.000000 492.000000 111.690236 492.000000 247.000000 Z" transform="scale(1.000000,1.000000) translate(3.000000,3.000000)" fill="#548af0" opacity="1.000000"></path>
        <path d="M 492.000000 247.000000 C 492.000000 382.309764 382.309764 492.000000 247.000000 492.000000 C 111.690236 492.000000 2.000000 382.309764 2.000000 247.000000 C 2.000000 111.690236 111.690236 2.000000 247.000000 2.000000 C 382.309764 2.000000 492.000000 111.690236 492.000000 247.000000 Z" transform="scale(1.000000,1.000000) translate(3.000000,3.000000)" fill="#f08e3c" opacity="1.000000"></path>
        <path d="M 492.000000 247.000000 C 492.000000 382.309764 382.309764 492.000000 247.000000 492.000000 C 111.690236 492.000000 2.000000 382.309764 2.000000 247.000000 C 2.000000 111.690236 111.690236 2.000000 247.000000 2.000000 C 382.309764 2.000000 492.000000 111.690236 492.000000 247.000000 Z" transform="scale(1.000000,1.000000) translate(3.000000,3.000000)" fill="#d00a2a" opacity="1.000000"></path>
        <path d="M 157.849644 14.824465 L 188.393160 45.962073 L 188.477806 35.373194 L 62.169364 160.086117 C 59.220194 162.998034 59.191906 167.749986 62.106199 170.696807 L 214.014991 324.301113 L 219.784807 311.540077 L 161.191049 308.118903 L 166.111425 310.357652 L 15.420962 156.536444 L 15.350581 167.104335 L 168.490937 14.891879 L 157.849644 14.824465 Z M 168.557908 4.320510 C 165.643790 1.349710 160.868139 1.319456 157.916615 4.253096 L 4.776259 156.465551 C 1.853473 159.370627 1.822045 164.089694 4.705878 167.033442 L 155.396341 320.854650 C 156.701161 322.186579 158.455327 322.984717 160.316718 323.093399 L 218.910476 326.514573 C 225.773115 326.915269 229.514125 318.641322 224.680292 313.753537 L 72.771500 160.149231 L 72.708336 170.759920 L 199.016778 46.046996 C 201.957443 43.143477 201.995296 38.408277 199.101424 35.458117 L 168.557908 4.320510 Z" transform="scale(1.000000,1.000000) translate(56.000000,116.000000)" fill="#ffffff" opacity="1.000000"></path>
        <path d="M 15.674076 70.527464 L 44.955883 41.375799 L 34.395802 41.398472 L 161.892428 167.242964 C 164.815267 170.127928 169.514785 170.125645 172.434820 167.237842 L 326.039126 15.329050 L 313.278090 9.559234 L 309.856916 68.152993 L 312.095665 63.232616 L 158.274457 213.923079 L 168.842251 213.993363 L 15.701895 59.925106 L 15.674076 70.527464 Z M 5.091123 59.897266 C 2.157322 62.818028 2.144871 67.563506 5.063305 70.499623 L 158.203661 224.567880 C 161.108753 227.490574 165.827745 227.521959 168.771455 224.638163 L 322.592663 73.947700 C 323.924592 72.642881 324.722729 70.888714 324.831412 69.027324 L 328.252586 10.433565 C 328.653282 3.570926 320.379335 -0.170083 315.491550 4.663749 L 161.887244 156.572541 L 172.429636 156.567420 L 44.933010 30.722928 C 42.003260 27.831142 37.290235 27.841261 34.372930 30.745601 L 5.091123 59.897266 Z" transform="scale(1.000000,1.000000) translate(113.000000,216.000000)" fill="#ffffff" opacity="1.000000"></path>
        <path d="M 71.497452 314.365891 L 42.345787 285.084084 L 42.378342 295.634135 L 167.294933 168.601459 C 170.170560 165.677119 170.163877 160.985233 167.279930 158.069098 L 15.371138 4.464792 L 9.601322 17.225828 L 68.195080 20.647001 L 63.274704 18.408252 L 213.965167 172.229461 L 214.027460 161.669621 L 60.887104 314.346027 L 71.497452 314.365891 Z M 60.867254 324.948844 C 63.791123 327.885766 68.542757 327.894661 71.477602 324.968707 L 224.617958 172.292302 C 227.533169 169.385923 227.560970 164.673032 224.680251 161.732462 L 73.989788 7.911254 C 72.684968 6.579326 70.930802 5.781188 69.069411 5.672505 L 10.475653 2.251331 C 3.613014 1.850635 -0.127996 10.124582 4.705837 15.012367 L 156.614629 168.616673 L 156.599625 158.084312 L 31.683034 285.116987 C 28.800601 288.048248 28.815121 292.753621 31.715589 295.667037 L 60.867254 324.948844 Z" transform="scale(1.000000,1.000000) translate(214.000000,59.000000)" fill="#ffffff" opacity="1.000000"></path>
        <path d="M 314.470839 159.246490 L 285.189033 188.398155 L 295.749113 188.375481 L 168.252487 62.530989 C 165.326503 59.642920 160.620838 59.648765 157.702036 62.544093 L 4.561681 214.452885 L 17.333994 220.155597 L 20.291217 161.561839 L 18.049250 166.541337 L 171.870459 15.850874 L 161.302665 15.780591 L 314.443021 169.848847 L 314.470839 159.246490 Z M 325.053792 169.876688 C 327.987594 166.955925 328.000045 162.210448 325.081610 159.274330 L 171.941254 5.206074 C 169.036162 2.283379 164.317170 2.251994 161.373460 5.135790 L 7.552252 155.826253 C 6.205729 157.145370 5.405299 158.923157 5.310285 160.805752 L 2.353061 219.399510 C 2.007739 226.241659 10.261569 229.926913 15.125375 225.102222 L 168.265730 73.193430 L 157.715279 73.206534 L 285.211905 199.051026 C 288.141655 201.942812 292.854680 201.932692 295.771985 199.028353 L 325.053792 169.876688 Z" transform="scale(1.000000,1.000000) translate(56.000000,58.000000)" fill="#ffffff" opacity="1.000000"></path>
    </g>
</svg>