<?xml version="1.0" encoding="UTF-8"?>
<svg viewBox="0 0 494.17722 670.55798" xmlns="http://www.w3.org/2000/svg">
 <defs>
  <filter id="k">
   <feGaussianBlur stdDeviation="1.0525"/>
  </filter>
  <filter id="a">
   <feGaussianBlur stdDeviation="2.202"/>
  </filter>
  <filter id="b">
   <feGaussianBlur stdDeviation="2.2567"/>
  </filter>
  <filter id="j" x="-.12459" y="-.05854" width="1.2492" height="1.1171">
   <feGaussianBlur stdDeviation="2.202"/>
  </filter>
  <filter id="i" x="-.13254" y="-.04493" width="1.2651" height="1.0899">
   <feGaussianBlur stdDeviation="2.202"/>
  </filter>
  <filter id="h" x="-.2376" y="-.34949" width="1.4752" height="1.699">
   <feGaussianBlur stdDeviation="2.202"/>
  </filter>
  <filter id="g" x="-.20703" y="-.17473" width="1.4141" height="1.3494">
   <feGaussianBlur stdDeviation="2.202"/>
  </filter>
  <filter id="f" x="-.09182" y="-.10259" width="1.1836" height="1.2052">
   <feGaussianBlur stdDeviation="2.202"/>
  </filter>
  <filter id="e" x="-.44831" y="-.14647" width="1.8966" height="1.293">
   <feGaussianBlur stdDeviation="2.202"/>
  </filter>
  <filter id="d" x="-.0788" y="-.15834" width="1.1576" height="1.3167">
   <feGaussianBlur stdDeviation="2.202"/>
  </filter>
  <filter id="c" x="-.11684" y="-.0351" width="1.2337" height="1.0702">
   <feGaussianBlur stdDeviation="2.2567"/>
  </filter>
 </defs>
 <g transform="translate(-399.66 -262.25)">
  <path d="m629.94 262.25c-2.8798 5.1834-8.2795 7.637-15.372 8.2569 5.2032 6.5058 12.075 6.9252 13.615 26.791l2.5913 25.386c0.51917 31.606-1.0875 60.925-3.7661 82.712s-9.4534 67.02-7.6091 96.524c23.131 1.6445 22.406-5.5773 8.213-16.294-3.0611-5.0636-0.65053-19.236 2.3717-34.828 0.80535-6.1744 3.8091-25.128 4.7433-39.067 0.90334-13.477 1.9859-70.916 3.25-72.27-0.33608-16.227 0.66325-34.839-1.1419-48.443z" fill="#7a8c4a"/>
  <path d="m622.95 496.38c-9.6824-10.153-19.206-11.986-28.727-13.634-14.863-10.582-23.614-25.066-36.925-41.988l-11.615-5.9006-10.776-12.609 2.8882 8.0435-8.618-1.6926c3.5196 8.5052 3.2071 13.556-5 11.491l-18.323 14.099-5.8385-2.764-11.615 4.1615c3.8981 5.563 3.7405 9.6846-5.4658 10.59l-14.037 3.0124c9.7137 6.0926 2.07 8.7328-2.4845 11.988-9.2918-9.8858-14.498-4.5586-20.311-1.4907l2.0497 11.739c-7.3889 4.4584-12.546 5.3516-16.087 3.6646l-0.80746 4.4099c-3.3627-2.7765-8.4278-3.4937-17.795 0.99379 3.9293 3.7849 8.3631 7.5013 7.5776 11.925l-17.05 11.925 7.8572 7.7329c-3.5617 7.6281-6.6216 16.503-11.708 20.342 5.6192 0.92014 11.119 1.0094 17.267 5.6211l-0.24844 8.1056 2.5466 0.0621c-2.0159 5.0998-6.3182 8.8271-14.565 10.186l6.8323 7.1118-9.8137 9.5031 7.2671 5.4037-9.441 19.503c6.6762 3.0574 24.45-1.403 15.093 12.516l8.6025 2.9193-1.4286 4.7516 5.7143 2.4224c-8.2879 8.1612-11.146 20.604-12.888 15.559l9.9689 8.6025c3.8845 3.887-0.30134 10.74-1.1491 16.366l7.795 0.59006-3.2298 23.323c17.229-1.3222 11.074 17.833 15.311 27.888l8.4472-0.80745c7.6418 10.964 13.245 22.638 20.901 42.64l6.4907-10.963c-1.8049-8.2185 6.5578-14.836 12.516-21.832l3.6646 6.1801c5.3079-4.0302 8.8352-12.907 12.733-20.776l5.0932 2.8571 27.422-25.186c4.7277-0.024 9.5749-0.36095 7.4224 17.64 4.3657 1.9419 10.007-0.45696 10.155 15.839 5.5471-0.14269 9.4956 4.4238 9.6252 9.2596 0.15978 5.9622 9.3946 8.2761 9.4431 11.33 3.3676-0.67799 6.9729-4.6316 9.9689-0.18634l8.4472 14.876c4.6665 2.2089 9.6958 2.6888 11.832 16.957l5.9938 10.248c3.1114-4.2923 6.6652 2.6392 10.311 11.894 3.138 0.30264 6.4072 1.946 10.87 15.776 3.5086 1.1665 6.3224-4.1133 12.36 14.348 2.506 1.0858 1.7697-5.3885 10.497 11.522 3.4056 1.8962 4.2938-3.9915 13.509 15.87 2.3442 2.3017 2.3051-5.7178 7.6398 9.5342 6.0981 12.421 12.092 26.332 17.453 49.224l2.4845-16.242 4.9068-34.037c1.7235-4.8244 3.4416-9.6466 8.0745-15.683 2.7955-0.25858 5.4093-0.28657 6.087 2.1428l9.3168-20.28 5.9627 0.46584c0.81692-11.603 3.7475-22.901 9.1926-17.95 0.93564-8.0992 6.3889-13.22 18.944-8.354 6.0035-2.43 9.3912-7.0868 6.8012-16.832l11.242 3.6646c3.2821-4.1933 3.7582-9.7274 2.7019-15.994 2.2162 5.1504 9.4031 3.2884 15.466 3.0124 1.9706-7.217 0.27696-18.312-0.46584-28.401l-6.9255-8.6025 10.311 3.5093 8.6646-1.1491-1.9255-21.894c4.519 0.17684 9.5506-1.7308 15.062-5.5901l-15.559-25.062 1.4907-3.1056 0.62112-10.062 6.646 0.46584c-2.6912-12.134-8.4598-15.185-13.168-21.366l4.0373-5.9317c-8.6093-3.1878-14.855-9.582-21.18-15.87l-21.211-14.068c-6.129-6.9934-3.9238-7.9654-3.4472-10.186 5.6824-7.4267 15.897-6.1447 25.652-5.7453l10.497 0.96273c10.118 5.3678 16.62 7.3219 32.112 17.764 0 0-1.118-3.5714 0.74534-2.9503s11.429 9.7516 11.429 9.7516l10.031 2.6398-0.90062-3.5093 5.1863 4.6273 13.727 2.4224c3.6382-0.9645 14.052 1.0718 23.199 2.5466l-10.621-23.665 4.4099-0.65218c2.04-3.5218-5.4622-11.594-8.323-17.453 3.5405 1.2685 6.0505-1.2984 8.1056-5.559l-10.373-17.95 10.186-7.2981c-0.42852-5.5518-3.8153-9.6244-6.2112-14.193l-5.3416-3.9752 2.205-4.441-9.0373-6.9255 8.4162-8.5404c-10.031-4.7334-16.548-5.5283-21.801-4.9068l-0.99378-3.5093c-3.9277-3.4409-8.9031-6.3177-13.882-9.1926l3.8199-9.5342-13.137-13.447c0.13528-5.9647 5.4997-11.407 11.335-16.801l-0.2795 0.12422c-7.2671-7.015-14.534-9.9529-21.801-13.385 1.2075-3.9392 1.9911-7.672 7.6087-13.758l-8.1988-4.3012c2.3043-6.3975 10.9-12.795 17.36-19.193-5.201-4.5567-11.968-6.7915-19.565-7.795l1.0559-4.2547-8.4162-0.93167 3.3851-7.5466-22.422-2.2671 2.5776-9.9689-22.547-1.7391 1.9255-10.683-6.5838-3.1988-6.3354-0.0311-0.0621-11.801c-5.9882 1.3984-14.078 2.5015-18.385 6.2733l-3.7267-2.8571-5.2484 9.1926 1.087-9.0062-19.72-1.4596-3.7888-14.13c-6.7206 4.8295-13.069 8.702-18.634 10.559l-1.8634-6.9565c-4.8049 0.99778-9.9147 0.92213-12.733 8.913l-4.0373-6.2112c-4.444 6.8303-4.7786 15.241-6.2112 23.23l-6.1801 2.4534-6.5838-6.7391c-5.4407 5.9482-9.2588 12.413-9.2547 20.093l-3.6646 13.199 0.65217 24.255 0.71428 17.422c-10.504 10.658-18.337 21.467-18.307 32.717z" fill="#82aa1a" fill-rule="evenodd"/>
  <path d="m668.98 671.23c6.856 40.747 49.131 44.856 68.69 83.974 5.6768 11.354 12.99 28.72 26.44 33.203 1.9517 0.65058 7.0765 4.0021 5.6217 2.5473-23.37-23.37-48.436-135.08-100.75-119.73z" fill="#89b714" fill-opacity=".952" fill-rule="evenodd" filter="url(#a)"/>
  <path d="m826.83 625.64c-16.889-15.31-141.33-107.69-152.23-99.522-1.1896 0.8922 30.088 20.24 53.318 41.812 20.796 19.31 69.096 64.053 98.907 57.71z" fill="#89b714" fill-opacity=".952" fill-rule="evenodd" filter="url(#a)"/>
  <path d="m641.67 688.89c-2.2497-4.3895 17.112-22.807 18.358-18.446 3.3908 11.868-12.406 27.299-15.811 38.649-3.1718 10.573 11.324 18.504 10.189 27.582-0.43596 3.4877-18.77 2.0386-19.852 11.77-1.2954 11.659 10.807 24.166-2.196 35.311-26.296 22.54-1.7088-66.021 9.311-94.866z" fill="#89b714" fill-opacity=".952" fill-rule="evenodd" filter="url(#i)"/>
  <path d="m809.62 558.09c12.718-5.7262 57.018 26.605 66.055 17.568 9.7984-9.7984-54.941-54.087-66.055-17.568z" fill="#89b714" fill-opacity=".952" fill-rule="evenodd" filter="url(#d)"/>
  <path d="m807.16 589.71c22.125 24.231 56.334 35.253 78.968 57.886 6.4102 6.4102-12.88-13.303-16.514-21.608-11.785-26.938 16.975-45.753-39.352-51.386-12.548-1.2548-18.028 5.3936-23.102 15.108z" fill="#89b714" fill-opacity=".952" fill-rule="evenodd" filter="url(#a)"/>
  <path d="m798.81 594.19c121.47 74.032 62.916 71.904 0 0z" fill="#89b714" fill-opacity=".952" fill-rule="evenodd" filter="url(#a)"/>
  <path d="m667.67 380.74c-3.1196 77.347 27.509 7.3949 0 0z" fill="#89b714" fill-opacity=".952" fill-rule="evenodd" filter="url(#e)"/>
  <path d="m726.26 408.15c-89.763 97.221 47.56 15.643 23.98-4.5676-1.846-1.5822-20.016 4.6094-23.98 4.5676z" fill="#89b714" fill-opacity=".952" fill-rule="evenodd" filter="url(#f)"/>
  <path d="m757.79 444.16c18.957-60.042 46.441-14.639 0 0z" fill="#89b714" fill-opacity=".952" fill-rule="evenodd" filter="url(#g)"/>
  <path d="m786.07 437.4c21.514-30.05 27.136 1.2356-4.5676 2.1081" fill="#89b714" fill-opacity=".952" fill-rule="evenodd" filter="url(#h)"/>
  <path d="m749.45 647.6c9.7741 5.4217 20.467 17.152 20.467 29.426 0 51.63 71.583 56.632 2.723-26-11.904-14.285-23.422-7.436-30.392-1.7568" fill="#89b714" fill-opacity=".952" fill-rule="evenodd" filter="url(#a)"/>
  <path d="m472.4 678.43c1.7105 11.236-29.604 17.314-31.359 24.332-0.31587 1.2635 29.477 58.175 30.832 58.852 25.33 12.665 1.3494-86.426 0.43919-89.157" fill="#89b714" fill-opacity=".952" fill-rule="evenodd" filter="url(#j)"/>
  <path d="m613.38 509.69c-8.8069 29.489-43.813 43.758-56.92 68.515-7.3143 13.816-13.219 28.283-20.291 42.426-104.44 208.88 106.5-44.091 77.211-110.94z" fill="#759e0b" fill-opacity=".7991" fill-rule="evenodd" filter="url(#b)"/>
  <path d="m622.17 507.5c4.4565 12.934 6.0218 28.645 12.21 41.021 3.8413 7.6826 24.725 110.85 28.723 110.85 13.831 0-3.1622-27.541-3.1622-41.372 0-19.726 3.7695-130.54-37.771-110.5z" fill="#759e0b" fill-opacity=".7991" fill-rule="evenodd" filter="url(#c)"/>
  <path d="m423.47 633.99c11.887-2.4663 23.563-6.3921 34.784-11.068 14.333-5.9719 18.382-24.082 34.609-29.075 8.6664-2.6666 48.927-8.369 48.927-19.676 0-7.9734-55.577 10.639-61.575 13.264-15.266 6.6787-31.497 11.845-46.204 19.764-36.61 19.713-0.47208-2.471-10.541 26.791z" fill="#759e0b" fill-opacity=".7991" fill-rule="evenodd" filter="url(#b)"/>
  <path d="m635.17 589.98c-17.187 12.15-64.452 90.505-48.663 111.56 5.7267 7.6356 23.402-34.22 24.419-37.068 10.391-29.096 47.202-45.408 24.244-74.488z" fill="#759e0b" fill-opacity=".7991" fill-rule="evenodd" filter="url(#b)"/>
  <path d="m433.49 546.85c23.734-4.5267 42.34 10.453 63.244 16.426 16.796 4.799 126.56-24.299 116.74-58.677-3.5577-12.452-160.81 32.444-179.98 42.251z" fill="#759e0b" fill-opacity=".7991" fill-rule="evenodd" filter="url(#b)"/>
  <path d="m620.32 496.82-27.52 0.0776c-25.495-26.785-88.805-42.811-99.59-42.009 38.258 7.4899 72.809 22.795 97.594 43.092l-44.103 8.7134c-29.83-20.105-77.678-22.354-100.16-26.93 25.584 3.9477 80 13.991 96.32 28.577l-50.734 12.437c-0.38165-13.446-42.079-17.443-75.225-21.52 22.364 6.8733 79.156 9.1676 72.831 23.057l-87.111 29.316c98.324-30.638 124.93-39.59 192.79-51.38l22.764-0.75117-32.95 52.428c-12.894 2.7291-22.909-3.5823-90.994 21.366-46.961-22.139-52.775-7.6742-83.665 2.795 35.222-14.638 56.329-16.911 78.882-1.1801l-86.832 39.814c70.687-31.268 120.37-55.455 179.19-58.82l-31.739 48.82c-52.923 6.1452-89.411 34.175-133.29 52.36 44.779-17.172 86.814-44.958 131.99-50.224l-24.72 40.497c-78.278 26.458-61.911 36.754-92.864 55.131 29.321-17.173 37.144-38.444 90.827-50.974 0 0-49.41 65.077-48.418 122 3.8248-52.851 39.076-107.45 73.119-156.74 16.291 35.634-14.288 72.46-29.006 108.88 12.416-35.382 48.713-62.652 31.118-111.62 18.654-39.826 48.026-72.864 72.212-110.03l15.862 70.97c-19.282 39.768-25.372 44.566-50.117 121.19-24.21 5.0796-26.398 16.674-36.218 26.452 10.562-9.7589 16.783-21.514 35.494-24.3l-10.462 56.039c29.807-125.99 50.138-148.61 62.795-175.4l19.317 79.876c-23.787 25.15-41.833 63.949-46.584 134.35 8.6126-58.754 20.422-110.88 48.634-129.01l11.118 66.211c-17.094 19.761-32.044 44.167-34.41 95.839 10.794-71.761 25.79-84.974 36.646-90.062l5.9006 45.776c-23.42 29.385-21.622 47.922-22.857 67.764 4.8715-34.895 12.847-59.369 27.019-63.043l1.4286 42.857c-14.925 10.526-15.178 19.902-17.516 29.441 5.9558-13.172 11.818-28.547 18.571-23.043l12.422 94.255-9.5031-119.01c3.8016-16.09 18.092 24.083 29.876 50.807-9.7716-31.035-19.597-58.585-29.876-56.584l-4.9068-42.112c11.742-7.508 32.893 40.309 52.547 79.317-14.205-31.884-23.619-67.035-53.354-88.323l-10.745-44.72c30.856 1.9574 60.445 57.336 90.186 106.27-22.023-44.289-44.982-87.838-91.18-112.98l-9.5652-48.261c57.885 24.422 97.982 85.175 136.02 136.21-40.289-50.247-78.399-115.36-137.08-142.05l-17.64-67.453c55.521 22.468 119.36 90.832 176.4 149.75-57.051-61.819-111.37-123.25-177.95-156.96l-15.696-71.599 47.579 19.549c36.102 20.49 60.955 36.92 99.191 55.059 36.621 25.095 86.623 56.372 118.37 76.247l-115.54-76.856c44.431-19.364 74.669 3.7102 110.26 4.392-35.588-5.9873-73.02-23.631-112.1-6.1693l-44.845-22.671c28.81-9.3139 39.604-12.181 57.991-15.196 19.858 3.7488 49.789 7.3061 87.954 7.4597-28.353-1.7343-56.912-3.7848-88.16-9.951 14.322-13.052 35.841-12.862 55.481-17.815-17.811 2.2514-38.688 1.8013-60.347 18.049l-56.522 15.59-45.901-28.323c85-26.459 101.8-25.885 160.57-35.573l-78.151 10.293c-5.1896-11.683 41.076-25.314 64.574-37.364-23.859 10.614-67.05 21.669-67.97 37.833l-83.152 23.051-47.53-19.437 25.569-18.493c24.773-14.116 51.72-22.244 78.6-31.192 33.166-2.6327 68.522-5.8449 102.33-13.881l-63.665 8.8619c0.20281-18.234 26.682-21.867 41.13-30.861-14.061 9.6154-33.771 4.2095-46.533 30.923l-29.689 2.4224c-6.118 3.524-0.54723-19.929 56.34-44.716-9.6852 7.6508-44.464 7.2202-64.042 46.827l-35.031 11.118c3.6933-30.288 36.457-57.057 64.907-84.348-35.726 27.895-62.959 58.343-68.106 85.216l-37.904 17.03c11.926-38.593 51.417-101.59 57.625-113.8l-20.311 31.18c-4.4509 9.202-6.6768-16.932-0.7589-29.166-3.9444 6.0057-10.393 16.153-2.5951 35.687l-12.422 24.099c-5.1081 12.025-5.7562-19.153-7.5776-34.161-1.5132 12.033-1.2934 22.733 3.0341 41.3l-9.9285 20.004c-6.0789-20.251-10.719-40.997-6.5217-62.857-5.7421 12.508-3.3209 37.011 4.5374 65.925l-8.8024 25.167-19.959 14.684z" fill="#658314" fill-opacity=".4454" filter="url(#k)" stroke="#d7f08f" stroke-opacity=".2445" stroke-width="2"/>
 </g>
</svg>
