<?xml version="1.0" encoding="UTF-8"?>
<svg enable-background="new 0 0 136.728 105.837" viewBox="0 0 136.728 105.837" xmlns="http://www.w3.org/2000/svg">
 <defs>
  <linearGradient id="a" x1="-519.48" x2="933.01" gradientUnits="userSpaceOnUse">
   <stop stop-color="#fff" offset="0"/>
   <stop offset="1"/>
  </linearGradient>
 </defs>
 <path d="m135.76 99.917c0 7.301-12.576 5.188-17.052 5.188h-106.92c-5.447 0-10.722 0.055-10.722-7.036v-91.991c0-7.165 10.477-5.352 15.039-5.352h107.35c5.055 0 12.313-1.169 12.313 6.154v93.037" fill="#fff"/>
 <path d="m128.23 93.767c0 6.851-13.604 4.609-17.649 4.609h-97.232c-7.135 0-4.75-14.081-4.75-18.33v-67.269c0-6.987 8.767-5.32 13.427-5.32h101.45c8.883 0 4.75 34.355 4.75 39.604 1e-3 15.569 1e-3 31.138 1e-3 46.706" fill="#f4f4f4"/>
 <path d="m6.252 0c-8.361 0-5.921 14.247-5.921 19.37v73.584c0 5.585-0.906 12.884 6.989 12.884h122.77c8.038 0 6.403-9.517 6.403-14.852v-73.967c0-5.146 2.069-17.019-6.043-17.019h-124.2m-4.461 99.917v-90.99c0-6.074 3.036-7.465 8.577-7.465h106.17c3.831 0 13.997-1.876 17.186 1.308 3.621 3.618 1.31 16.075 1.31 20.434v72.301c0 5.594-1.201 8.873-7.357 8.873h-105.08c-4.864 0-11.592 1.237-16.346 0-2.432-2e-3 -4.462-2.03-4.462-4.461" fill="url(#a)"/>
 <path d="m33.727,67.579c-.769-16.994 29.184-11.628 39.951-11.628 5.627,0 11.397-.378 17.014,0 6.108,0 11.05,3.191 11.05,9.651 0,3.341 4.577,3.044 4.577-.522 0-18.181-32.367-12.855-43.796-12.855-6.193,0-12.478-.316-18.662,0-6.12,0-13.082,2.599-14.229,9.364-.846,4.98-.765,5.99 4.095,5.99" fill="#494848"/>
 <path d="m70.423 52.244c-2.898 0-4.718 1.121-4.718-2.003 0-1.625-1.111-9.787 0-10.806 6.271-5.739 4.718 10.987 4.718 12.809" fill="#494848"/>
 <path d="m49.654 92.493h-33.227c-3.334 0-1.59-7.51-1.59-10.186 0-2.656-1.814-14.991 0-16.896 1.308-1.368 11.377 0 13.234 0h19.994c3.333 0 1.589 7.513 1.589 10.187v16.895" fill="#fed219"/>
 <path d="m14.837,64.125c-2.277,0-2.521,29.658.107,29.658h18.144c3.415,0 13.636,1.876 16.566,0 2.278,0 2.522-29.658-.106-29.658h-34.711m33.528,2.579v14.101c0,2.986 1.714,10.399-1.835,10.399h-30.403v-14.101c0-2.988-1.714-10.399 1.835-10.399h30.403" fill="#ffbb54"/>
 <path d="m47.938 68.746c0 1.359-31.811 1.384-31.811 0 0-3.066 31.811-3.066 31.811 0" fill="#ffffa1"/>
 <path d="m121.278,92.493h-33.228c-3.336,0-1.591-7.51-1.591-10.186 0-2.656-1.814-14.991 0-16.896 1.308-1.368 11.375,0 13.234,0h19.993c3.336,0 1.591,7.513 1.591,10.187 .001,5.632.001,11.266.001,16.895" fill="#9cd305"/>
 <path d="m86.459,64.125c-2.276,0-2.521,29.658.106,29.658h18.144c3.415,0 13.638,1.876 16.568,0 2.276,0 2.521-29.658-.107-29.658h-34.711m33.529,2.579v14.101c0,2.986 1.714,10.399-1.836,10.399h-30.402v-14.101c0-2.988-1.714-10.399 1.834-10.399h30.404" fill="#76aa04"/>
 <path d="m119.56 68.746c0 1.359-31.812 1.384-31.812 0 1e-3 -3.066 31.812-3.066 31.812 0" fill="#c2ef20"/>
 <path d="m86.712 38.621h-34.08c-3.208 0-1.531-7.176-1.531-9.748 0-2.473-1.795-16.379 0-17.947 1.821-1.592 12.124 0 14.484 0h19.597c3.207 0 1.53 7.176 1.53 9.748v17.947" fill="#d82a2a"/>
 <path d="m51.102,9.606c-2.332,0-2.567,30.334.103,30.334h17.704c3.734,0 14.58,2.012 17.805,0 2.328,0 2.563-30.334-.103-30.334h-35.509m34.291,2.638v15.208c0,3.012 1.69,9.849-1.876,9.849h-31.096v-15.21c0-3.01-1.69-9.847 1.876-9.847h31.096" fill="#b20d0d"/>
 <path d="m84.956 14.333c0 1.391-32.535 1.416-32.535 0 0-3.136 32.535-3.136 32.535 0" fill="#f74b4b"/>
</svg>
