<?xml version="1.0" encoding="UTF-8" standalone="yes"?>
<!DOCTYPE svg PUBLIC "-//W3C//DTD SVG 1.1//EN" "http://www.w3.org/Graphics/SVG/1.1/DTD/svg11.dtd">

<svg width="500" height="500" viewBox="0 0 500 500" xmlns="http://www.w3.org/2000/svg" xmlns:xlink="http://www.w3.org/1999/xlink" version="1.1" baseProfile="full">
    <g transform="scale(1,-1) translate(0,-500)">
        <path d="M 492.000000 247.000000 C 492.000000 382.309764 382.309764 492.000000 247.000000 492.000000 C 111.690236 492.000000 2.000000 382.309764 2.000000 247.000000 C 2.000000 111.690236 111.690236 2.000000 247.000000 2.000000 C 382.309764 2.000000 492.000000 111.690236 492.000000 247.000000 Z" transform="scale(1.000000,1.000000) translate(3.000000,3.000000)" fill="#d09400" opacity="1.000000"></path>
        <path d="M 105.484286 97.984256 L 105.484254 10.015660 L 105.484252 2.515660 L 97.984252 2.515662 L 10.015655 2.515694 L 2.515655 2.515697 L 2.515658 10.015697 L 2.515690 97.984293 L 2.515693 105.484293 L 10.015693 105.484290 L 97.984289 105.484259 L 105.484289 105.484256 L 105.484286 97.984256 Z M 90.484286 97.984261 L 97.984283 90.484259 L 10.015687 90.484290 L 17.515690 97.984288 L 17.515658 10.015691 L 10.015661 17.515694 L 97.984257 17.515662 L 90.484254 10.015665 L 90.484286 97.984261 Z" transform="scale(1.000000,1.000000) translate(196.000000,196.000000)" fill="#ffffff" opacity="1.000000"></path>
        <path d="M 9.989264 173.510744 L 166.010736 173.510688 L 173.510736 173.510685 L 173.510733 166.010685 L 173.510677 9.989213 L 173.510674 2.489213 L 166.010674 2.489216 L 9.989202 2.489272 L 2.489202 2.489274 L 2.489205 9.989274 L 2.489261 166.010747 L 2.489264 173.510747 L 9.989264 173.510744 Z M 9.989258 158.510744 L 17.489261 166.010741 L 17.489205 9.989269 L 9.989207 17.489272 L 166.010680 17.489216 L 158.510677 9.989218 L 158.510733 166.010691 L 166.010730 158.510688 L 9.989258 158.510744 Z" transform="scale(1.000000,1.000000) translate(162.000000,162.000000)" fill="#ffffff" opacity="1.000000"></path>
        <path d="M 245.038754 237.538680 L 245.038672 10.461192 L 245.038669 2.961192 L 237.538669 2.961195 L 10.461181 2.961277 L 2.961181 2.961280 L 2.961184 10.461280 L 2.961266 237.538767 L 2.961269 245.038767 L 10.461269 245.038764 L 237.538756 245.038683 L 245.038756 245.038680 L 245.038754 237.538680 Z M 230.038754 237.538685 L 237.538751 230.038683 L 10.461263 230.038764 L 17.961266 237.538762 L 17.961184 10.461274 L 10.461187 17.961277 L 237.538674 17.961195 L 230.038672 10.461198 L 230.038754 237.538685 Z" transform="scale(1.000000,1.000000) translate(126.000000,126.000000)" fill="#ffffff" opacity="1.000000"></path>
        <path d="M 2.991375 17.132413 L 38.949748 52.213728 L 52.916220 37.898084 L 16.957847 2.816769 L 2.991375 17.132413 Z" transform="scale(1.000000,1.000000) translate(283.000000,283.000000)" fill="#ffffff" opacity="1.000000"></path>
        <path d="M 38.542949 2.438776 L 2.584601 39.274183 L 16.896090 53.244912 L 52.854438 16.409505 L 38.542949 2.438776 Z" transform="scale(1.000000,1.000000) translate(317.000000,127.000000)" fill="#ffffff" opacity="1.000000"></path>
    </g>
</svg>