<?xml version="1.0" standalone="yes"?>

<svg version="1.1" viewBox="0.0 0.0 233.94225721784778 359.498687664042" fill="none" stroke="none" stroke-linecap="square" stroke-miterlimit="10" xmlns="http://www.w3.org/2000/svg" xmlns:xlink="http://www.w3.org/1999/xlink"><clipPath id="p.0"><path d="m0 0l233.94226 0l0 359.4987l-233.94226 0l0 -359.4987z" clip-rule="nonzero"></path></clipPath><g clip-path="url(#p.0)"><path fill="#000000" fill-opacity="0.0" d="m0 0l233.94226 0l0 359.4987l-233.94226 0z" fill-rule="evenodd"></path><path fill="#cfe2f3" d="m4.8792653 25.853418l0 0c0 -11.045916 8.954483 -20.0004 20.0004 -20.0004l184.37715 0c5.304428 0 10.391617 2.1071792 14.14241 5.857981c3.7508087 3.750803 5.8579865 8.837983 5.8579865 14.142419l0 79.9992c0 11.045921 -8.954483 20.000404 -20.000397 20.000404l-184.37715 0c-11.045917 0 -20.0004 -8.954483 -20.0004 -20.000404z" fill-rule="evenodd"></path><path stroke="#000000" stroke-width="4.0" stroke-linejoin="round" stroke-linecap="butt" d="m4.8792653 25.853418l0 0c0 -11.045916 8.954483 -20.0004 20.0004 -20.0004l184.37715 0c5.304428 0 10.391617 2.1071792 14.14241 5.857981c3.7508087 3.750803 5.8579865 8.837983 5.8579865 14.142419l0 79.9992c0 11.045921 -8.954483 20.000404 -20.000397 20.000404l-184.37715 0c-11.045917 0 -20.0004 -8.954483 -20.0004 -20.000404z" fill-rule="evenodd"></path><path fill="#000000" d="m31.030884 66.80427l-5.625 0l0 5.96875l-1.734375 0l0 -13.515629l8.296875 0l0 1.46875l-6.5625 0l0 4.625004l5.625 0l0 1.453125zm8.117447 6.15625q-1.0625 0 -1.953125 -0.359375q-0.875 -0.359375 -1.515625 -1.015625q-0.625 -0.65625 -0.984375 -1.546875q-0.34375 -0.890625 -0.34375 -1.9375l0 -0.390625q0 -1.203125 0.390625 -2.15625q0.390625 -0.96875 1.03125 -1.6250038q0.65625 -0.671875 1.46875 -1.015625q0.828125 -0.359375 1.6875 -0.359375q1.078125 0 1.890625 0.375q0.8125 0.375 1.34375 1.046875q0.546875 0.6562538 0.8125 1.5625038q0.265625 0.890625 0.265625 1.9375l0 0.765625l-7.171875 0q0.03125 0.6875 0.265625 1.296875q0.234375 0.59375 0.640625 1.046875q0.421875 0.453125 1.0 0.71875q0.578125 0.25 1.265625 0.25q0.921875 0 1.625 -0.359375q0.71875 -0.375 1.203125 -0.984375l1.046875 0.8125q-0.25 0.375 -0.625 0.734375q-0.375 0.34375 -0.875 0.609375q-0.484375 0.265625 -1.109375 0.421875q-0.625 0.171875 -1.359375 0.171875zm-0.21875 -9.000004q-0.515625 0 -0.984375 0.18750381q-0.46875 0.1875 -0.84375 0.5625q-0.359375 0.359375 -0.625 0.890625q-0.25 0.53125 -0.34375 1.234375l5.390625 0l0 -0.125q-0.03125 -0.5 -0.1875 -0.984375q-0.15625 -0.5 -0.484375 -0.890625q-0.3125 -0.390625 -0.796875 -0.625q-0.46875 -0.2500038 -1.125 -0.2500038zm11.414322 9.000004q-1.0625 0 -1.953125 -0.359375q-0.875 -0.359375 -1.515625 -1.015625q-0.625 -0.65625 -0.984375 -1.546875q-0.34375 -0.890625 -0.34375 -1.9375l0 -0.390625q0 -1.203125 0.390625 -2.15625q0.390625 -0.96875 1.03125 -1.6250038q0.65625 -0.671875 1.46875 -1.015625q0.828125 -0.359375 1.6875 -0.359375q1.078125 0 1.890625 0.375q0.8125 0.375 1.34375 1.046875q0.546875 0.6562538 0.8125 1.5625038q0.265625 0.890625 0.265625 1.9375l0 0.765625l-7.171875 0q0.03125 0.6875 0.265625 1.296875q0.234375 0.59375 0.640625 1.046875q0.421875 0.453125 1.0 0.71875q0.578125 0.25 1.265625 0.25q0.921875 0 1.625 -0.359375q0.71875 -0.375 1.203125 -0.984375l1.046875 0.8125q-0.25 0.375 -0.625 0.734375q-0.375 0.34375 -0.875 0.609375q-0.484375 0.265625 -1.109375 0.421875q-0.625 0.171875 -1.359375 0.171875zm-0.21875 -9.000004q-0.515625 0 -0.984375 0.18750381q-0.46875 0.1875 -0.84375 0.5625q-0.359375 0.359375 -0.625 0.890625q-0.25 0.53125 -0.34375 1.234375l5.390625 0l0 -0.125q-0.03125 -0.5 -0.1875 -0.984375q-0.15625 -0.5 -0.484375 -0.890625q-0.3125 -0.390625 -0.796875 -0.625q-0.46875 -0.2500038 -1.125 -0.2500038zm6.664322 3.7031288q0 -1.109375 0.28125 -2.046875q0.28125 -0.953125 0.796875 -1.6250038q0.53125 -0.6875 1.265625 -1.0625q0.75 -0.375 1.671875 -0.375q0.890625 0 1.5625 0.296875q0.671875 0.296875 1.171875 0.875l0 -5.203125l1.71875 0l0 14.250004l-1.578125 0l-0.078125 -1.0625q-0.5 0.609375 -1.203125 0.9375q-0.6875 0.3125 -1.625 0.3125q-0.90625 0 -1.640625 -0.390625q-0.734375 -0.390625 -1.265625 -1.078125q-0.515625 -0.6875 -0.796875 -1.609375q-0.28125 -0.9375 -0.28125 -2.015625l0 -0.203125zm1.703125 0.203125q0 0.734375 0.15625 1.390625q0.171875 0.65625 0.5 1.15625q0.328125 0.5 0.828125 0.796875q0.515625 0.296875 1.234375 0.296875q0.4375 0 0.78125 -0.09375q0.359375 -0.109375 0.640625 -0.296875q0.296875 -0.203125 0.515625 -0.46875q0.21875 -0.265625 0.390625 -0.578125l0 -4.65625q-0.34375 -0.625 -0.90625 -1.015625q-0.5625 -0.390625 -1.40625 -0.390625q-0.71875 0 -1.234375 0.296875q-0.515625 0.296875 -0.84375 0.8125q-0.328125 0.5 -0.5 1.171875q-0.15625 0.65625 -0.15625 1.375l0 0.203125zm9.804947 -8.609379l8.171875 0l0 1.5l-3.234375 0l0 10.531254l3.234375 0l0 1.484375l-8.171875 0l0 -1.484375l3.171875 0l0 -10.531254l-3.171875 0l0 -1.5zm15.258072 1.046875l0 2.4375l3.828125 0l0 1.3125038l-3.828125 0l0 5.46875q0 0.578125 0.140625 0.96875q0.15625 0.375 0.421875 0.609375q0.265625 0.21875 0.59375 0.3125q0.34375 0.09375 0.71875 0.09375q0.28125 0 0.578125 -0.03125q0.296875 -0.046875 0.578125 -0.078125q0.28125 -0.046875 0.53125 -0.09375q0.25 -0.0625 0.40625 -0.09375l0.234375 1.203125q-0.203125 0.140625 -0.515625 0.234375q-0.296875 0.09375 -0.671875 0.15625q-0.359375 0.078125 -0.765625 0.109375q-0.390625 0.046875 -0.796875 0.046875q-0.671875 0 -1.25 -0.1875q-0.578125 -0.1875 -1.015625 -0.59375q-0.421875 -0.421875 -0.671875 -1.078125q-0.234375 -0.65625 -0.234375 -1.578125l0 -5.46875l-2.640625 0l0 -1.3125038l2.640625 0l0 -2.4375l1.71875 0zm11.570572 12.656254q-1.0625 0 -1.953125 -0.359375q-0.875 -0.359375 -1.515625 -1.015625q-0.625 -0.65625 -0.984375 -1.546875q-0.34375 -0.890625 -0.34375 -1.9375l0 -0.390625q0 -1.203125 0.390625 -2.15625q0.390625 -0.96875 1.03125 -1.6250038q0.65625 -0.671875 1.46875 -1.015625q0.828125 -0.359375 1.6875 -0.359375q1.078125 0 1.890625 0.375q0.8125 0.375 1.34375 1.046875q0.546875 0.6562538 0.8125 1.5625038q0.265625 0.890625 0.265625 1.9375l0 0.765625l-7.171875 0q0.03125 0.6875 0.265625 1.296875q0.234375 0.59375 0.640625 1.046875q0.421875 0.453125 1.0 0.71875q0.578125 0.25 1.265625 0.25q0.921875 0 1.625 -0.359375q0.71875 -0.375 1.203125 -0.984375l1.046875 0.8125q-0.25 0.375 -0.625 0.734375q-0.375 0.34375 -0.875 0.609375q-0.484375 0.265625 -1.109375 0.421875q-0.625 0.171875 -1.359375 0.171875zm-0.21875 -9.000004q-0.515625 0 -0.984375 0.18750381q-0.46875 0.1875 -0.84375 0.5625q-0.359375 0.359375 -0.625 0.890625q-0.25 0.53125 -0.34375 1.234375l5.390625 0l0 -0.125q-0.03125 -0.5 -0.1875 -0.984375q-0.15625 -0.5 -0.484375 -0.890625q-0.3125 -0.390625 -0.796875 -0.625q-0.46875 -0.2500038 -1.125 -0.2500038zm7.773697 -1.21875l0.046875 0.9375q0.296875 -0.53125 0.796875 -0.828125q0.5 -0.296875 1.203125 -0.296875q1.375 0 1.84375 1.078125q0.296875 -0.484375 0.78125 -0.78125q0.5 -0.296875 1.1875 -0.296875q1.109375 0 1.703125 0.671875q0.59375 0.671875 0.59375 2.0468788l0 7.5l-1.640625 0l0 -7.515625q0 -1.2656288 -1.15625 -1.25q-0.3125 0 -0.53125 0.09375q-0.21875 0.078125 -0.375 0.21875q-0.140625 0.140625 -0.234375 0.328125q-0.078125 0.1875 -0.109375 0.390625l0 7.734375l-1.625 0l0 -7.53125q0 -0.59375 -0.28125 -0.921875q-0.265625 -0.3281288 -0.84375 -0.3125q-0.53125 0 -0.828125 0.21875q-0.296875 0.203125 -0.4375 0.5625l0 7.984375l-1.640625 0l0 -10.031254l1.546875 0zm19.148697 5.968754q-0.109375 0.9375 -0.484375 1.71875q-0.359375 0.78125 -0.9375 1.34375q-0.578125 0.5625 -1.375 0.875q-0.796875 0.3125 -1.765625 0.3125q-0.828125 0 -1.515625 -0.234375q-0.6875 -0.234375 -1.21875 -0.65625q-0.53125 -0.421875 -0.921875 -0.984375q-0.375 -0.5625 -0.640625 -1.234375q-0.25 -0.671875 -0.375 -1.40625q-0.125 -0.734375 -0.125 -1.484375l0 -1.875q0 -0.75 0.125 -1.4843788q0.125 -0.734375 0.375 -1.40625q0.265625 -0.671875 0.640625 -1.234375q0.390625 -0.578125 0.921875 -0.984375q0.53125 -0.421875 1.203125 -0.65625q0.6875 -0.234375 1.53125 -0.234375q1.015625 0 1.8125 0.3125q0.796875 0.296875 1.375 0.875q0.578125 0.5625 0.921875 1.375q0.34375 0.796875 0.453125 1.75l-1.71875 0q-0.078125 -0.609375 -0.28125 -1.140625q-0.203125 -0.53125 -0.546875 -0.921875q-0.34375 -0.40625 -0.84375 -0.625q-0.5 -0.234375 -1.171875 -0.234375q-0.609375 0 -1.078125 0.203125q-0.46875 0.203125 -0.8125 0.546875q-0.328125 0.34375 -0.5625 0.796875q-0.21875 0.453125 -0.359375 0.96875q-0.140625 0.5 -0.203125 1.0468788q-0.0625 0.53125 -0.0625 1.03125l0 1.890625q0 0.5 0.0625 1.046875q0.0625 0.53125 0.203125 1.046875q0.140625 0.515625 0.359375 0.96875q0.21875 0.453125 0.5625 0.796875q0.34375 0.34375 0.796875 0.546875q0.46875 0.203125 1.09375 0.203125q0.671875 0 1.171875 -0.21875q0.5 -0.21875 0.84375 -0.59375q0.34375 -0.390625 0.546875 -0.90625q0.203125 -0.53125 0.28125 -1.140625l1.71875 0zm1.9611969 -1.046875q0 -1.09375 0.3125 -2.015625q0.328125 -0.9375 0.90625 -1.625q0.59375 -0.6875038 1.4375 -1.0781288q0.84375 -0.390625 1.90625 -0.390625q1.0625 0 1.90625 0.390625q0.859375 0.390625 1.4375 1.0781288q0.59375 0.6875 0.90625 1.625q0.328125 0.921875 0.328125 2.015625l0 0.203125q0 1.078125 -0.328125 2.015625q-0.3125 0.921875 -0.90625 1.609375q-0.578125 0.6875 -1.421875 1.078125q-0.84375 0.390625 -1.90625 0.390625q-1.0625 0 -1.921875 -0.390625q-0.84375 -0.390625 -1.4375 -1.078125q-0.578125 -0.6875 -0.90625 -1.609375q-0.3125 -0.9375 -0.3125 -2.015625l0 -0.203125zm1.71875 0.203125q0 0.734375 0.171875 1.40625q0.1875 0.671875 0.546875 1.1875q0.359375 0.515625 0.890625 0.8125q0.53125 0.296875 1.25 0.296875q0.703125 0 1.234375 -0.296875q0.546875 -0.296875 0.890625 -0.8125q0.359375 -0.515625 0.53125 -1.1875q0.1875 -0.671875 0.1875 -1.40625l0 -0.203125q0 -0.734375 -0.1875 -1.40625q-0.171875 -0.671875 -0.53125 -1.171875q-0.359375 -0.515625 -0.890625 -0.8125q-0.53125 -0.3125038 -1.25 -0.3125038q-0.71875 0 -1.25 0.3125038q-0.515625 0.296875 -0.875 0.8125q-0.359375 0.5 -0.546875 1.171875q-0.171875 0.671875 -0.171875 1.40625l0 0.203125zm10.758072 -5.125004l0.046875 0.9375q0.296875 -0.53125 0.796875 -0.828125q0.5 -0.296875 1.203125 -0.296875q1.375 0 1.84375 1.078125q0.296875 -0.484375 0.78125 -0.78125q0.5 -0.296875 1.1875 -0.296875q1.109375 0 1.703125 0.671875q0.59375 0.671875 0.59375 2.0468788l0 7.5l-1.640625 0l0 -7.515625q0 -1.2656288 -1.15625 -1.25q-0.3125 0 -0.53125 0.09375q-0.21875 0.078125 -0.375 0.21875q-0.140625 0.140625 -0.234375 0.328125q-0.078125 0.1875 -0.109375 0.390625l0 7.734375l-1.625 0l0 -7.53125q0 -0.59375 -0.28125 -0.921875q-0.265625 -0.3281288 -0.84375 -0.3125q-0.53125 0 -0.828125 0.21875q-0.296875 0.203125 -0.4375 0.5625l0 7.984375l-1.640625 0l0 -10.031254l1.546875 0zm18.867447 5.125004q0 1.078125 -0.265625 2.015625q-0.25 0.921875 -0.75 1.609375q-0.5 0.6875 -1.234375 1.078125q-0.734375 0.390625 -1.6875 0.390625q-0.921875 0 -1.625 -0.296875q-0.6875 -0.296875 -1.1875 -0.859375l0 4.828125l-1.71875 0l0 -13.890629l1.5625 0l0.078125 1.09375q0.5 -0.625 1.203125 -0.953125q0.71875 -0.328125 1.65625 -0.328125q0.96875 0 1.703125 0.375q0.75 0.375 1.25 1.0625q0.5 0.6718788 0.75 1.6250038q0.265625 0.9375 0.265625 2.046875l0 0.203125zm-1.703125 -0.203125q0 -0.71875 -0.171875 -1.375q-0.15625 -0.671875 -0.5 -1.171875q-0.34375 -0.515625 -0.859375 -0.8125q-0.515625 -0.296875 -1.234375 -0.296875q-0.828125 0 -1.390625 0.390625q-0.5625 0.375 -0.890625 0.984375l0 4.828125q0.328125 0.59375 0.875 0.96875q0.5625 0.375 1.421875 0.375q0.71875 0 1.234375 -0.296875q0.515625 -0.296875 0.84375 -0.8125q0.34375 -0.515625 0.5 -1.171875q0.171875 -0.671875 0.171875 -1.40625l0 -0.203125zm3.945572 0q0 -1.09375 0.3125 -2.015625q0.328125 -0.9375 0.90625 -1.625q0.59375 -0.6875038 1.4375 -1.0781288q0.84375 -0.390625 1.90625 -0.390625q1.0625 0 1.90625 0.390625q0.859375 0.390625 1.4375 1.0781288q0.59375 0.6875 0.90625 1.625q0.328125 0.921875 0.328125 2.015625l0 0.203125q0 1.078125 -0.328125 2.015625q-0.3125 0.921875 -0.90625 1.609375q-0.578125 0.6875 -1.421875 1.078125q-0.84375 0.390625 -1.90625 0.390625q-1.0625 0 -1.921875 -0.390625q-0.84375 -0.390625 -1.4375 -1.078125q-0.578125 -0.6875 -0.90625 -1.609375q-0.3125 -0.9375 -0.3125 -2.015625l0 -0.203125zm1.71875 0.203125q0 0.734375 0.171875 1.40625q0.1875 0.671875 0.546875 1.1875q0.359375 0.515625 0.890625 0.8125q0.53125 0.296875 1.25 0.296875q0.703125 0 1.234375 -0.296875q0.546875 -0.296875 0.890625 -0.8125q0.359375 -0.515625 0.53125 -1.1875q0.1875 -0.671875 0.1875 -1.40625l0 -0.203125q0 -0.734375 -0.1875 -1.40625q-0.171875 -0.671875 -0.53125 -1.171875q-0.359375 -0.515625 -0.890625 -0.8125q-0.53125 -0.3125038 -1.25 -0.3125038q-0.71875 0 -1.25 0.3125038q-0.515625 0.296875 -0.875 0.8125q-0.359375 0.5 -0.546875 1.171875q-0.171875 0.671875 -0.171875 1.40625l0 0.203125zm11.508072 -5.125004l0.125 1.4843788q0.546875 -0.7812538 1.34375 -1.2187538q0.796875 -0.453125 1.78125 -0.453125q0.78125 0 1.421875 0.21875q0.65625 0.21875 1.109375 0.703125q0.453125 0.46875 0.6875 1.2031288q0.25 0.71875 0.25 1.71875l0 6.375l-1.703125 0l0 -6.34375q0 -0.65625 -0.15625 -1.125q-0.140625 -0.46875 -0.4375 -0.75q-0.296875 -0.28125 -0.71875 -0.40625q-0.421875 -0.140625 -0.96875 -0.140625q-0.859375 0 -1.515625 0.4375q-0.65625 0.421875 -1.046875 1.125l0 7.203125l-1.71875 0l0 -10.031254l1.546875 0zm14.086197 10.218754q-1.0625 0 -1.953125 -0.359375q-0.875 -0.359375 -1.515625 -1.015625q-0.625 -0.65625 -0.984375 -1.546875q-0.34375 -0.890625 -0.34375 -1.9375l0 -0.390625q0 -1.203125 0.390625 -2.15625q0.390625 -0.96875 1.03125 -1.6250038q0.65625 -0.671875 1.46875 -1.015625q0.828125 -0.359375 1.6875 -0.359375q1.078125 0 1.890625 0.375q0.8125 0.375 1.34375 1.046875q0.546875 0.6562538 0.8125 1.5625038q0.265625 0.890625 0.265625 1.9375l0 0.765625l-7.171875 0q0.03125 0.6875 0.265625 1.296875q0.234375 0.59375 0.640625 1.046875q0.421875 0.453125 1.0 0.71875q0.578125 0.25 1.265625 0.25q0.921875 0 1.625 -0.359375q0.71875 -0.375 1.203125 -0.984375l1.046875 0.8125q-0.25 0.375 -0.625 0.734375q-0.375 0.34375 -0.875 0.609375q-0.484375 0.265625 -1.109375 0.421875q-0.625 0.171875 -1.359375 0.171875zm-0.21875 -9.000004q-0.515625 0 -0.984375 0.18750381q-0.46875 0.1875 -0.84375 0.5625q-0.359375 0.359375 -0.625 0.890625q-0.25 0.53125 -0.34375 1.234375l5.390625 0l0 -0.125q-0.03125 -0.5 -0.1875 -0.984375q-0.15625 -0.5 -0.484375 -0.890625q-0.3125 -0.390625 -0.796875 -0.625q-0.46875 -0.2500038 -1.125 -0.2500038zm8.523697 -1.21875l0.125 1.4843788q0.546875 -0.7812538 1.34375 -1.2187538q0.796875 -0.453125 1.78125 -0.453125q0.78125 0 1.421875 0.21875q0.65625 0.21875 1.109375 0.703125q0.453125 0.46875 0.6875 1.2031288q0.25 0.71875 0.25 1.71875l0 6.375l-1.703125 0l0 -6.34375q0 -0.65625 -0.15625 -1.125q-0.140625 -0.46875 -0.4375 -0.75q-0.296875 -0.28125 -0.71875 -0.40625q-0.421875 -0.140625 -0.96875 -0.140625q-0.859375 0 -1.515625 0.4375q-0.65625 0.421875 -1.046875 1.125l0 7.203125l-1.71875 0l0 -10.031254l1.546875 0zm13.711197 -2.4375l0 2.4375l3.828125 0l0 1.3125038l-3.828125 0l0 5.46875q0 0.578125 0.140625 0.96875q0.15625 0.375 0.421875 0.609375q0.265625 0.21875 0.59375 0.3125q0.34375 0.09375 0.71875 0.09375q0.28125 0 0.578125 -0.03125q0.296875 -0.046875 0.578125 -0.078125q0.28125 -0.046875 0.53125 -0.09375q0.25 -0.0625 0.40625 -0.09375l0.234375 1.203125q-0.203125 0.140625 -0.515625 0.234375q-0.296875 0.09375 -0.671875 0.15625q-0.359375 0.078125 -0.765625 0.109375q-0.390625 0.046875 -0.796875 0.046875q-0.671875 0 -1.25 -0.1875q-0.578125 -0.1875 -1.015625 -0.59375q-0.421875 -0.421875 -0.671875 -1.078125q-0.234375 -0.65625 -0.234375 -1.578125l0 -5.46875l-2.640625 0l0 -1.3125038l2.640625 0l0 -2.4375l1.71875 0z" fill-rule="nonzero"></path><path fill="#000000" fill-opacity="0.0" d="m117.068245 125.85302l0 109.259834" fill-rule="evenodd"></path><path stroke="#000000" stroke-width="4.0" stroke-linejoin="round" stroke-linecap="butt" d="m117.068245 125.85302l0 85.259834" fill-rule="evenodd"></path><path fill="#000000" stroke="#000000" stroke-width="4.0" stroke-linecap="butt" d="m110.46131 211.11287l6.6069336 18.15239l6.606926 -18.15239z" fill-rule="evenodd"></path><path fill="#cfe2f3" d="m4.8792653 255.11327l0 0c0 -11.045914 8.954483 -20.000412 20.0004 -20.000412l184.37715 0c5.304428 0 10.391617 2.107193 14.14241 5.8579865c3.7508087 3.7508087 5.8579865 8.837982 5.8579865 14.142426l0 79.99919c0 11.045929 -8.954483 20.000397 -20.000397 20.000397l-184.37715 0c-11.045917 0 -20.0004 -8.954468 -20.0004 -20.000397z" fill-rule="evenodd"></path><path stroke="#000000" stroke-width="4.0" stroke-linejoin="round" stroke-linecap="butt" d="m4.8792653 255.11327l0 0c0 -11.045914 8.954483 -20.000412 20.0004 -20.000412l184.37715 0c5.304428 0 10.391617 2.107193 14.14241 5.8579865c3.7508087 3.7508087 5.8579865 8.837982 5.8579865 14.142426l0 79.99919c0 11.045929 -8.954483 20.000397 -20.000397 20.000397l-184.37715 0c-11.045917 0 -20.0004 -8.954468 -20.0004 -20.000397z" fill-rule="evenodd"></path><path fill="#000000" d="m37.863045 297.97037q-0.109375 0.9375 -0.484375 1.71875q-0.359375 0.78125 -0.9375 1.34375q-0.578125 0.5625 -1.375 0.875q-0.796875 0.3125 -1.765625 0.3125q-0.828125 0 -1.515625 -0.234375q-0.6875 -0.234375 -1.21875 -0.65625q-0.53125 -0.421875 -0.921875 -0.984375q-0.375 -0.5625 -0.640625 -1.234375q-0.25 -0.671875 -0.375 -1.40625q-0.125 -0.734375 -0.125 -1.484375l0 -1.875q0 -0.75 0.125 -1.484375q0.125 -0.734375 0.375 -1.40625q0.265625 -0.671875 0.640625 -1.234375q0.390625 -0.578125 0.921875 -0.984375q0.53125 -0.421875 1.203125 -0.65625q0.6875 -0.234375 1.53125 -0.234375q1.015625 0 1.8125 0.3125q0.796875 0.296875 1.375 0.875q0.578125 0.5625 0.921875 1.375q0.34375 0.796875 0.453125 1.75l-1.71875 0q-0.078125 -0.609375 -0.28125 -1.140625q-0.203125 -0.53125 -0.546875 -0.921875q-0.34375 -0.40625 -0.84375 -0.625q-0.5 -0.234375 -1.171875 -0.234375q-0.609375 0 -1.078125 0.203125q-0.46875 0.203125 -0.8125 0.546875q-0.328125 0.34375 -0.5625 0.796875q-0.21875 0.453125 -0.359375 0.96875q-0.140625 0.5 -0.203125 1.046875q-0.0625 0.53125 -0.0625 1.03125l0 1.890625q0 0.5 0.0625 1.046875q0.0625 0.53125 0.203125 1.046875q0.140625 0.515625 0.359375 0.96875q0.21875 0.453125 0.5625 0.796875q0.34375 0.34375 0.796875 0.546875q0.46875 0.203125 1.09375 0.203125q0.671875 0 1.171875 -0.21875q0.5 -0.21875 0.84375 -0.59375q0.34375 -0.390625 0.546875 -0.90625q0.203125 -0.53125 0.28125 -1.140625l1.71875 0zm1.9611969 -1.046875q0 -1.09375 0.3125 -2.015625q0.328125 -0.9375 0.90625 -1.625q0.59375 -0.6875 1.4375 -1.078125q0.84375 -0.390625 1.90625 -0.390625q1.0625 0 1.90625 0.390625q0.859375 0.390625 1.4375 1.078125q0.59375 0.6875 0.90625 1.625q0.328125 0.921875 0.328125 2.015625l0 0.203125q0 1.078125 -0.328125 2.015625q-0.3125 0.921875 -0.90625 1.609375q-0.578125 0.6875 -1.421875 1.078125q-0.84375 0.390625 -1.90625 0.390625q-1.0625 0 -1.921875 -0.390625q-0.84375 -0.390625 -1.4375 -1.078125q-0.578125 -0.6875 -0.90625 -1.609375q-0.3125 -0.9375 -0.3125 -2.015625l0 -0.203125zm1.71875 0.203125q0 0.734375 0.171875 1.40625q0.1875 0.671875 0.546875 1.1875q0.359375 0.515625 0.890625 0.8125q0.53125 0.296875 1.25 0.296875q0.703125 0 1.234375 -0.296875q0.546875 -0.296875 0.890625 -0.8125q0.359375 -0.515625 0.53125 -1.1875q0.1875 -0.671875 0.1875 -1.40625l0 -0.203125q0 -0.734375 -0.1875 -1.40625q-0.171875 -0.671875 -0.53125 -1.171875q-0.359375 -0.515625 -0.890625 -0.8125q-0.53125 -0.3125 -1.25 -0.3125q-0.71875 0 -1.25 0.3125q-0.515625 0.296875 -0.875 0.8125q-0.359375 0.5 -0.546875 1.171875q-0.171875 0.671875 -0.171875 1.40625l0 0.203125zm10.758072 -5.125l0.046875 0.9375q0.296875 -0.53125 0.796875 -0.828125q0.5 -0.296875 1.203125 -0.296875q1.375 0 1.84375 1.078125q0.296875 -0.484375 0.78125 -0.78125q0.5 -0.296875 1.1875 -0.296875q1.109375 0 1.703125 0.671875q0.59375 0.671875 0.59375 2.046875l0 7.5l-1.640625 0l0 -7.515625q0 -1.265625 -1.15625 -1.25q-0.3125 0 -0.53125 0.09375q-0.21875 0.078125 -0.375 0.21875q-0.140625 0.140625 -0.234375 0.328125q-0.078125 0.1875 -0.109375 0.390625l0 7.734375l-1.625 0l0 -7.53125q0 -0.59375 -0.28125 -0.921875q-0.265625 -0.328125 -0.84375 -0.3125q-0.53125 0 -0.828125 0.21875q-0.296875 0.203125 -0.4375 0.5625l0 7.984375l-1.640625 0l0 -10.03125l1.546875 0zm18.867447 5.125q0 1.078125 -0.265625 2.015625q-0.25 0.921875 -0.75 1.609375q-0.5 0.6875 -1.234375 1.078125q-0.734375 0.390625 -1.6875 0.390625q-0.921875 0 -1.625 -0.296875q-0.6875 -0.296875 -1.1875 -0.859375l0 4.828125l-1.71875 0l0 -13.890625l1.5625 0l0.078125 1.09375q0.5 -0.625 1.203125 -0.953125q0.71875 -0.328125 1.65625 -0.328125q0.96875 0 1.703125 0.375q0.75 0.375 1.25 1.0625q0.5 0.671875 0.75 1.625q0.265625 0.9375 0.265625 2.046875l0 0.203125zm-1.703125 -0.203125q0 -0.71875 -0.171875 -1.375q-0.15625 -0.671875 -0.5 -1.171875q-0.34375 -0.515625 -0.859375 -0.8125q-0.515625 -0.296875 -1.234375 -0.296875q-0.828125 0 -1.390625 0.390625q-0.5625 0.375 -0.890625 0.984375l0 4.828125q0.328125 0.59375 0.875 0.96875q0.5625 0.375 1.421875 0.375q0.71875 0 1.234375 -0.296875q0.515625 -0.296875 0.84375 -0.8125q0.34375 -0.515625 0.5 -1.171875q0.171875 -0.671875 0.171875 -1.40625l0 -0.203125zm4.711197 -9.140625l5.125 0l0 12.765625l3.265625 0l0 1.484375l-8.390625 0l0 -1.484375l3.40625 0l0 -11.265625l-3.40625 0l0 -1.5zm15.351822 14.4375q-1.0625 0 -1.953125 -0.359375q-0.875 -0.359375 -1.515625 -1.015625q-0.625 -0.65625 -0.984375 -1.546875q-0.34375 -0.890625 -0.34375 -1.9375l0 -0.390625q0 -1.203125 0.390625 -2.15625q0.390625 -0.96875 1.03125 -1.625q0.65625 -0.671875 1.46875 -1.015625q0.828125 -0.359375 1.6875 -0.359375q1.078125 0 1.890625 0.375q0.8125 0.375 1.34375 1.046875q0.546875 0.65625 0.8125 1.5625q0.265625 0.890625 0.265625 1.9375l0 0.765625l-7.171875 0q0.03125 0.6875 0.265625 1.296875q0.234375 0.59375 0.640625 1.046875q0.421875 0.453125 1.0 0.71875q0.578125 0.25 1.265625 0.25q0.921875 0 1.625 -0.359375q0.71875 -0.375 1.203125 -0.984375l1.046875 0.8125q-0.25 0.375 -0.625 0.734375q-0.375 0.34375 -0.875 0.609375q-0.484375 0.265625 -1.109375 0.421875q-0.625 0.171875 -1.359375 0.171875zm-0.21875 -9.0q-0.515625 0 -0.984375 0.1875q-0.46875 0.1875 -0.84375 0.5625q-0.359375 0.359375 -0.625 0.890625q-0.25 0.53125 -0.34375 1.234375l5.390625 0l0 -0.125q-0.03125 -0.5 -0.1875 -0.984375q-0.15625 -0.5 -0.484375 -0.890625q-0.3125 -0.390625 -0.796875 -0.625q-0.46875 -0.25 -1.125 -0.25zm11.133072 2.5l2.671875 -3.71875l2.015625 0l-3.734375 4.953125l3.84375 5.078125l-1.984375 0l-2.78125 -3.828125l-2.765625 3.828125l-2.015625 0l3.84375 -5.078125l-3.734375 -4.953125l1.984375 0l2.65625 3.71875zm15.789322 2.25q-0.109375 0.9375 -0.484375 1.71875q-0.359375 0.78125 -0.9375 1.34375q-0.578125 0.5625 -1.375 0.875q-0.796875 0.3125 -1.765625 0.3125q-0.828125 0 -1.515625 -0.234375q-0.6875 -0.234375 -1.21875 -0.65625q-0.53125 -0.421875 -0.921875 -0.984375q-0.375 -0.5625 -0.640625 -1.234375q-0.25 -0.671875 -0.375 -1.40625q-0.125 -0.734375 -0.125 -1.484375l0 -1.875q0 -0.75 0.125 -1.484375q0.125 -0.734375 0.375 -1.40625q0.265625 -0.671875 0.640625 -1.234375q0.390625 -0.578125 0.921875 -0.984375q0.53125 -0.421875 1.203125 -0.65625q0.6875 -0.234375 1.53125 -0.234375q1.015625 0 1.8125 0.3125q0.796875 0.296875 1.375 0.875q0.578125 0.5625 0.921875 1.375q0.34375 0.796875 0.453125 1.75l-1.71875 0q-0.078125 -0.609375 -0.28125 -1.140625q-0.203125 -0.53125 -0.546875 -0.921875q-0.34375 -0.40625 -0.84375 -0.625q-0.5 -0.234375 -1.171875 -0.234375q-0.609375 0 -1.078125 0.203125q-0.46875 0.203125 -0.8125 0.546875q-0.328125 0.34375 -0.5625 0.796875q-0.21875 0.453125 -0.359375 0.96875q-0.140625 0.5 -0.203125 1.046875q-0.0625 0.53125 -0.0625 1.03125l0 1.890625q0 0.5 0.0625 1.046875q0.0625 0.53125 0.203125 1.046875q0.140625 0.515625 0.359375 0.96875q0.21875 0.453125 0.5625 0.796875q0.34375 0.34375 0.796875 0.546875q0.46875 0.203125 1.09375 0.203125q0.671875 0 1.171875 -0.21875q0.5 -0.21875 0.84375 -0.59375q0.34375 -0.390625 0.546875 -0.90625q0.203125 -0.53125 0.28125 -1.140625l1.71875 0zm1.9611969 -1.046875q0 -1.09375 0.3125 -2.015625q0.328125 -0.9375 0.90625 -1.625q0.59375 -0.6875 1.4375 -1.078125q0.84375 -0.390625 1.90625 -0.390625q1.0625 0 1.90625 0.390625q0.859375 0.390625 1.4375 1.078125q0.59375 0.6875 0.90625 1.625q0.328125 0.921875 0.328125 2.015625l0 0.203125q0 1.078125 -0.328125 2.015625q-0.3125 0.921875 -0.90625 1.609375q-0.578125 0.6875 -1.421875 1.078125q-0.84375 0.390625 -1.90625 0.390625q-1.0625 0 -1.921875 -0.390625q-0.84375 -0.390625 -1.4375 -1.078125q-0.578125 -0.6875 -0.90625 -1.609375q-0.3125 -0.9375 -0.3125 -2.015625l0 -0.203125zm1.71875 0.203125q0 0.734375 0.171875 1.40625q0.1875 0.671875 0.546875 1.1875q0.359375 0.515625 0.890625 0.8125q0.53125 0.296875 1.25 0.296875q0.703125 0 1.234375 -0.296875q0.546875 -0.296875 0.890625 -0.8125q0.359375 -0.515625 0.53125 -1.1875q0.1875 -0.671875 0.1875 -1.40625l0 -0.203125q0 -0.734375 -0.1875 -1.40625q-0.171875 -0.671875 -0.53125 -1.171875q-0.359375 -0.515625 -0.890625 -0.8125q-0.53125 -0.3125 -1.25 -0.3125q-0.71875 0 -1.25 0.3125q-0.515625 0.296875 -0.875 0.8125q-0.359375 0.5 -0.546875 1.171875q-0.171875 0.671875 -0.171875 1.40625l0 0.203125zm10.758064 -5.125l0.046875 0.9375q0.296875 -0.53125 0.796875 -0.828125q0.5 -0.296875 1.203125 -0.296875q1.375 0 1.84375 1.078125q0.296875 -0.484375 0.78125 -0.78125q0.5 -0.296875 1.1875 -0.296875q1.109375 0 1.703125 0.671875q0.59376526 0.671875 0.59376526 2.046875l0 7.5l-1.6406403 0l0 -7.515625q0 -1.265625 -1.15625 -1.25q-0.3125 0 -0.53125 0.09375q-0.21875 0.078125 -0.375 0.21875q-0.140625 0.140625 -0.234375 0.328125q-0.078125 0.1875 -0.109375 0.390625l0 7.734375l-1.625 0l0 -7.53125q0 -0.59375 -0.28125 -0.921875q-0.265625 -0.328125 -0.84375 -0.3125q-0.53125 0 -0.828125 0.21875q-0.296875 0.203125 -0.4375 0.5625l0 7.984375l-1.640625 0l0 -10.03125l1.546875 0zm18.867447 5.125q0 1.078125 -0.265625 2.015625q-0.25 0.921875 -0.75 1.609375q-0.5 0.6875 -1.234375 1.078125q-0.734375 0.390625 -1.6875 0.390625q-0.921875 0 -1.625 -0.296875q-0.6875 -0.296875 -1.1875 -0.859375l0 4.828125l-1.71875 0l0 -13.890625l1.5625 0l0.078125 1.09375q0.5 -0.625 1.203125 -0.953125q0.71875 -0.328125 1.65625 -0.328125q0.96875 0 1.703125 0.375q0.75 0.375 1.25 1.0625q0.5 0.671875 0.75 1.625q0.265625 0.9375 0.265625 2.046875l0 0.203125zm-1.703125 -0.203125q0 -0.71875 -0.171875 -1.375q-0.15625 -0.671875 -0.5 -1.171875q-0.34375 -0.515625 -0.859375 -0.8125q-0.515625 -0.296875 -1.234375 -0.296875q-0.828125 0 -1.390625 0.390625q-0.5625 0.375 -0.890625 0.984375l0 4.828125q0.328125 0.59375 0.875 0.96875q0.5625 0.375 1.421875 0.375q0.71875 0 1.234375 -0.296875q0.515625 -0.296875 0.84375 -0.8125q0.34375 -0.515625 0.5 -1.171875q0.171875 -0.671875 0.171875 -1.40625l0 -0.203125zm3.9455872 0q0 -1.09375 0.3125 -2.015625q0.328125 -0.9375 0.90625 -1.625q0.59375 -0.6875 1.4375 -1.078125q0.84375 -0.390625 1.90625 -0.390625q1.0625 0 1.90625 0.390625q0.859375 0.390625 1.4375 1.078125q0.59375 0.6875 0.90625 1.625q0.328125 0.921875 0.328125 2.015625l0 0.203125q0 1.078125 -0.328125 2.015625q-0.3125 0.921875 -0.90625 1.609375q-0.578125 0.6875 -1.421875 1.078125q-0.84375 0.390625 -1.90625 0.390625q-1.0625 0 -1.921875 -0.390625q-0.84375 -0.390625 -1.4375 -1.078125q-0.578125 -0.6875 -0.90625 -1.609375q-0.3125 -0.9375 -0.3125 -2.015625l0 -0.203125zm1.71875 0.203125q0 0.734375 0.171875 1.40625q0.1875 0.671875 0.546875 1.1875q0.359375 0.515625 0.890625 0.8125q0.53125 0.296875 1.25 0.296875q0.703125 0 1.234375 -0.296875q0.546875 -0.296875 0.890625 -0.8125q0.359375 -0.515625 0.53125 -1.1875q0.1875 -0.671875 0.1875 -1.40625l0 -0.203125q0 -0.734375 -0.1875 -1.40625q-0.171875 -0.671875 -0.53125 -1.171875q-0.359375 -0.515625 -0.890625 -0.8125q-0.53125 -0.3125 -1.25 -0.3125q-0.71875 0 -1.25 0.3125q-0.515625 0.296875 -0.875 0.8125q-0.359375 0.5 -0.546875 1.171875q-0.171875 0.671875 -0.171875 1.40625l0 0.203125zm11.508057 -5.125l0.125 1.484375q0.546875 -0.78125 1.34375 -1.21875q0.796875 -0.453125 1.78125 -0.453125q0.78125 0 1.421875 0.21875q0.65625 0.21875 1.109375 0.703125q0.453125 0.46875 0.6875 1.203125q0.25 0.71875 0.25 1.71875l0 6.375l-1.703125 0l0 -6.34375q0 -0.65625 -0.15625 -1.125q-0.140625 -0.46875 -0.4375 -0.75q-0.296875 -0.28125 -0.71875 -0.40625q-0.421875 -0.140625 -0.96875 -0.140625q-0.859375 0 -1.515625 0.4375q-0.65625 0.421875 -1.046875 1.125l0 7.203125l-1.71875 0l0 -10.03125l1.546875 0zm14.086212 10.21875q-1.0625 0 -1.953125 -0.359375q-0.875 -0.359375 -1.515625 -1.015625q-0.625 -0.65625 -0.984375 -1.546875q-0.34375 -0.890625 -0.34375 -1.9375l0 -0.390625q0 -1.203125 0.390625 -2.15625q0.390625 -0.96875 1.03125 -1.625q0.65625 -0.671875 1.46875 -1.015625q0.828125 -0.359375 1.6875 -0.359375q1.078125 0 1.890625 0.375q0.8125 0.375 1.34375 1.046875q0.546875 0.65625 0.8125 1.5625q0.265625 0.890625 0.265625 1.9375l0 0.765625l-7.171875 0q0.03125 0.6875 0.265625 1.296875q0.234375 0.59375 0.640625 1.046875q0.421875 0.453125 1.0 0.71875q0.578125 0.25 1.265625 0.25q0.921875 0 1.625 -0.359375q0.71875 -0.375 1.203125 -0.984375l1.046875 0.8125q-0.25 0.375 -0.625 0.734375q-0.375 0.34375 -0.875 0.609375q-0.484375 0.265625 -1.109375 0.421875q-0.625 0.171875 -1.359375 0.171875zm-0.21875 -9.0q-0.515625 0 -0.984375 0.1875q-0.46875 0.1875 -0.84375 0.5625q-0.359375 0.359375 -0.625 0.890625q-0.25 0.53125 -0.34375 1.234375l5.390625 0l0 -0.125q-0.03125 -0.5 -0.1875 -0.984375q-0.15625 -0.5 -0.484375 -0.890625q-0.3125 -0.390625 -0.796875 -0.625q-0.46875 -0.25 -1.125 -0.25zm8.523682 -1.21875l0.125 1.484375q0.546875 -0.78125 1.34375 -1.21875q0.796875 -0.453125 1.78125 -0.453125q0.78125 0 1.421875 0.21875q0.65625 0.21875 1.109375 0.703125q0.453125 0.46875 0.6875 1.203125q0.25 0.71875 0.25 1.71875l0 6.375l-1.703125 0l0 -6.34375q0 -0.65625 -0.15625 -1.125q-0.140625 -0.46875 -0.4375 -0.75q-0.296875 -0.28125 -0.71875 -0.40625q-0.421875 -0.140625 -0.96875 -0.140625q-0.859375 0 -1.515625 0.4375q-0.65625 0.421875 -1.046875 1.125l0 7.203125l-1.71875 0l0 -10.03125l1.546875 0zm13.711212 -2.4375l0 2.4375l3.828125 0l0 1.3125l-3.828125 0l0 5.46875q0 0.578125 0.140625 0.96875q0.15625 0.375 0.421875 0.609375q0.265625 0.21875 0.59375 0.3125q0.34375 0.09375 0.71875 0.09375q0.28125 0 0.578125 -0.03125q0.296875 -0.046875 0.578125 -0.078125q0.28125 -0.046875 0.53125 -0.09375q0.25 -0.0625 0.40625 -0.09375l0.234375 1.203125q-0.203125 0.140625 -0.515625 0.234375q-0.296875 0.09375 -0.671875 0.15625q-0.359375 0.078125 -0.765625 0.109375q-0.390625 0.046875 -0.796875 0.046875q-0.671875 0 -1.25 -0.1875q-0.578125 -0.1875 -1.015625 -0.59375q-0.421875 -0.421875 -0.671875 -1.078125q-0.234375 -0.65625 -0.234375 -1.578125l0 -5.46875l-2.640625 0l0 -1.3125l2.640625 0l0 -2.4375l1.71875 0z" fill-rule="nonzero"></path></g></svg>

